<svg width="20" height="20" viewBox="0 0 20 20" fill="none" xmlns="http://www.w3.org/2000/svg">
<path d="M17.051 4.68751H13.707L13.4805 4.00436L13.1243 2.93852C12.7208 1.72718 11.5882 0.910142 10.3111 0.909089H8.77914C7.50215 0.908035 6.36742 1.72612 5.96294 2.93852L5.60682 4.00436L5.38345 4.68751H2.0394C1.47044 4.67591 0.984718 5.09655 0.914131 5.66164C0.884629 5.96632 0.984723 6.26784 1.19017 6.49449C1.39562 6.7201 1.68749 6.84767 1.99303 6.84662H2.80221C2.80115 6.93096 2.80642 7.01635 2.81591 7.10069L3.83792 15.7992C3.99807 17.1582 5.15073 18.1829 6.51937 18.1818H12.5715C13.9391 18.1818 15.0906 17.1571 15.2498 15.7992L16.2718 7.10069H16.2728C16.2834 7.01635 16.2886 6.93096 16.2886 6.84662H17.0978C17.4034 6.84767 17.6952 6.72011 17.9007 6.49449C18.1061 6.26783 18.2062 5.96632 18.1767 5.66164C18.1061 5.09655 17.6204 4.67593 17.0514 4.68751H17.051ZM8.01308 3.62166C8.12265 3.29167 8.43137 3.06923 8.77905 3.06817H10.3089H10.3078C10.6566 3.06817 10.9664 3.29062 11.077 3.62166L11.4331 4.68751H7.65696L8.01308 3.62166ZM13.1085 15.5453C13.0768 15.8184 12.844 16.025 12.569 16.0229H6.51907C6.24303 16.025 6.01123 15.8184 5.97962 15.5453L4.95973 6.84683H14.1304L13.1085 15.5453Z" fill="#454545"/>
</svg>
