<svg width="32" height="32" viewBox="0 0 32 32" fill="none" xmlns="http://www.w3.org/2000/svg">
<path d="M10.375 24.6944H10.625V24.4444V7.55556V7.30556H10.375H6.15625C5.25454 7.30556 4.5 8.00235 4.5 8.88889V23.1111C4.5 23.9976 5.25454 24.6944 6.15625 24.6944H10.375ZM13.875 24.4444V24.6944H14.125H25.8438C26.7455 24.6944 27.5 23.9976 27.5 23.1111V8.88889C27.5 8.00235 26.7455 7.30556 25.8438 7.30556H14.125H13.875V7.55556V24.4444ZM25.8438 4.25C28.5657 4.25 30.75 6.33969 30.75 8.88889V23.1111C30.75 25.6603 28.5657 27.75 25.8438 27.75H6.15625C3.43433 27.75 1.25 25.6603 1.25 23.1111V8.88889C1.25 6.33969 3.43433 4.25 6.15625 4.25H25.8438Z" fill="#454545" stroke="white" stroke-width="0.5"/>
</svg>
