<svg width="20" height="20" viewBox="0 0 20 20" fill="none" xmlns="http://www.w3.org/2000/svg">
<path d="M5.26096 0.946871H14.74C15.3126 0.946871 15.7782 1.41249 15.7782 1.98515V18.0148C15.7782 18.5874 15.3126 19.053 14.74 19.053H5.26096C4.70472 19.053 4.24612 18.6116 4.22424 18.0562V1.93975C4.2469 1.38429 4.7047 0.942871 5.26096 0.942871V0.946871ZM8.39916 8.99687C8.91166 8.99687 9.32728 9.41249 9.32728 9.92499C9.32728 10.4375 8.91166 10.8531 8.39916 10.8531C7.88666 10.8531 7.47104 10.4375 7.47104 9.92499C7.47104 9.41249 7.88666 8.99687 8.39916 8.99687ZM6.81634 2.18507L10.8367 4.32487C11.0446 4.43581 11.1633 4.64909 11.1633 4.86863C11.1664 8.28963 11.1656 11.71 11.1656 15.131C11.1656 15.3873 11.0094 15.6076 10.7875 15.7014L6.81653 17.8146H14.5407V2.18495L6.81634 2.18507ZM5.46088 17.1391L9.92808 14.7617V5.23667L5.46088 2.85927V17.1391Z" fill="#454545"/>
</svg>
