<svg width="20" height="20" viewBox="0 0 20 20" fill="none" xmlns="http://www.w3.org/2000/svg">
<path d="M7.49998 10C7.03982 10 6.66638 10.3734 6.66638 10.8336C6.66638 11.2938 7.03982 11.6664 7.49998 11.6664H8.33358C8.79374 11.6664 9.1664 11.2938 9.1664 10.8336C9.1664 10.3734 8.79374 10 8.33358 10H7.49998Z" fill="#454545"/>
<path d="M6.66638 5.8336C6.66638 5.37344 7.03982 5 7.49998 5H10.8336C11.2937 5 11.6664 5.37344 11.6664 5.8336C11.6664 6.29376 11.2937 6.66642 10.8336 6.66642H7.49998C7.03982 6.66642 6.66638 6.29376 6.66638 5.8336Z" fill="#454545"/>
<path d="M7.49998 7.5C7.03982 7.5 6.66638 7.87344 6.66638 8.3336C6.66638 8.79376 7.03982 9.16642 7.49998 9.16642H10.8336C11.2937 9.16642 11.6664 8.79376 11.6664 8.3336C11.6664 7.87344 11.2937 7.5 10.8336 7.5H7.49998Z" fill="#454545"/>
<path fill-rule="evenodd" clip-rule="evenodd" d="M3.33364 4.16641C3.33364 2.78595 4.4524 1.66641 5.83364 1.66641H12.5C13.8805 1.66641 15 2.78595 15 4.16641V5.00001H15.8336C17.2141 5.00001 18.3336 6.11955 18.3336 7.50001V15.8336C18.3336 17.2141 17.2141 18.3336 15.8336 18.3336H9.16644C7.78598 18.3336 6.66644 17.2141 6.66644 15.8336V15H5.83362C4.45238 15 3.33362 13.8805 3.33362 12.5L3.33364 4.16641ZM15 12.5V6.66641H15.8336C16.2938 6.66641 16.6665 7.03985 16.6665 7.50001V15.8336C16.6665 16.2938 16.2938 16.6664 15.8336 16.6664H9.16644C8.70628 16.6664 8.33362 16.2938 8.33362 15.8336V15H12.5C13.8805 15 15 13.8805 15 12.5ZM5.83364 3.33361C5.37348 3.33361 5.00004 3.70627 5.00004 4.16643V12.5C5.00004 12.9602 5.37348 13.3336 5.83364 13.3336H12.5C12.9602 13.3336 13.3336 12.9602 13.3336 12.5V4.16643C13.3336 3.70627 12.9602 3.33361 12.5 3.33361H5.83364Z" fill="#454545"/>
</svg>
