<svg width="20" height="20" viewBox="0 0 20 20" fill="none" xmlns="http://www.w3.org/2000/svg">
<path d="M10 1C7.6132 1 5.3242 1.94844 3.636 3.636C1.9485 5.32428 1 7.6134 1 10C1 12.3866 1.94844 14.6758 3.636 16.364C5.32428 18.0515 7.6134 19 10 19C12.3866 19 14.6758 18.0516 16.364 16.364C18.0515 14.6757 19 12.3866 19 10C18.9977 7.614 18.0484 5.3266 16.361 3.639C14.6736 1.9514 12.386 1.0022 10 1ZM10 17.8C7.9312 17.8 5.9476 16.9781 4.4844 15.5156C3.0219 14.0523 2.2 12.0688 2.2 10C2.2 7.9312 3.02188 5.9476 4.4844 4.4844C5.94768 3.0219 7.9312 2.2 10 2.2C12.0688 2.2 14.0524 3.02188 15.5156 4.4844C16.9781 5.94768 17.8 7.9312 17.8 10C17.7977 12.068 16.975 14.0508 15.5124 15.5124C14.0507 16.9749 12.0678 17.7976 10 17.8Z" fill="#454545"/>
<path d="M9.99995 8.26398C9.78745 8.26398 9.58433 8.34835 9.43433 8.49836C9.28433 8.64836 9.19995 8.85148 9.19995 9.06398V14.085C9.19995 14.5264 9.55777 14.885 9.99995 14.885C10.4421 14.885 10.8 14.5264 10.8 14.085V9.06398C10.8 8.85148 10.7156 8.64836 10.5656 8.49836C10.4156 8.34836 10.2125 8.26398 9.99995 8.26398Z" fill="#454545"/>
<path d="M10.8 5.91479C10.8 6.98119 9.19995 6.98119 9.19995 5.91479C9.19995 4.84839 10.8 4.84839 10.8 5.91479Z" fill="#454545"/>
</svg>
