<svg width="24" height="25" viewBox="0 0 24 25" fill="none" xmlns="http://www.w3.org/2000/svg">
<path d="M16 8.3252V6.3252C16 5.79476 15.7893 5.28605 15.4142 4.91098C15.0391 4.53591 14.5304 4.3252 14 4.3252H6C5.46957 4.3252 4.96086 4.53591 4.58579 4.91098C4.21071 5.28605 4 5.79476 4 6.3252V14.3252C4 14.8556 4.21071 15.3643 4.58579 15.7394C4.96086 16.1145 5.46957 16.3252 6 16.3252H8M8 10.3252C8 9.79476 8.21071 9.28605 8.58579 8.91098C8.96086 8.53591 9.46957 8.3252 10 8.3252H18C18.5304 8.3252 19.0391 8.53591 19.4142 8.91098C19.7893 9.28605 20 9.79476 20 10.3252V18.3252C20 18.8556 19.7893 19.3643 19.4142 19.7394C19.0391 20.1145 18.5304 20.3252 18 20.3252H10C9.46957 20.3252 8.96086 20.1145 8.58579 19.7394C8.21071 19.3643 8 18.8556 8 18.3252V10.3252Z" stroke="#354052" stroke-width="2" stroke-linecap="round" stroke-linejoin="round"/>
</svg>
