<svg width="24" height="25" viewBox="0 0 24 25" fill="none" xmlns="http://www.w3.org/2000/svg">
<path d="M12 3.3252C11.2044 3.3252 10.4413 3.64127 9.87868 4.20388C9.31607 4.76648 9 5.52955 9 6.3252M9 6.3252V18.3252M9 6.3252C9 5.52955 8.68393 4.76648 8.12132 4.20388C7.55871 3.64127 6.79565 3.3252 6 3.3252M9 18.3252C9 19.1208 9.31607 19.8839 9.87868 20.4465C10.4413 21.0091 11.2044 21.3252 12 21.3252M9 18.3252C9 19.1208 8.68393 19.8839 8.12132 20.4465C7.55871 21.0091 6.79565 21.3252 6 21.3252M13 7.3252H20C20.2652 7.3252 20.5196 7.43055 20.7071 7.61809C20.8946 7.80563 21 8.05998 21 8.3252V16.3252C21 16.5904 20.8946 16.8448 20.7071 17.0323C20.5196 17.2198 20.2652 17.3252 20 17.3252H13M5 7.3252H4C3.73478 7.3252 3.48043 7.43055 3.29289 7.61809C3.10536 7.80563 3 8.05998 3 8.3252V16.3252C3 16.5904 3.10536 16.8448 3.29289 17.0323C3.48043 17.2198 3.73478 17.3252 4 17.3252H5M17 12.3252H17.01M13 12.3252H13.01" stroke="#354052" stroke-width="2" stroke-linecap="round" stroke-linejoin="round"/>
</svg>
