<svg width="24" height="25" viewBox="0 0 24 25" fill="none" xmlns="http://www.w3.org/2000/svg">
<path d="M15 8.3252H15.01M11 20.3252H7C6.20435 20.3252 5.44129 20.0091 4.87868 19.4465C4.31607 18.8839 4 18.1208 4 17.3252V7.3252C4 6.52955 4.31607 5.76648 4.87868 5.20388C5.44129 4.64127 6.20435 4.3252 7 4.3252H17C17.7956 4.3252 18.5587 4.64127 19.1213 5.20388C19.6839 5.76648 20 6.52955 20 7.3252V11.3252M4 15.3252L8 11.3252C8.928 10.4322 10.072 10.4322 11 11.3252L14 14.3252L15 13.3252C15.31 13.0272 15.644 12.8282 15.987 12.7292M18.42 15.9352C18.615 15.7402 18.8465 15.5855 19.1013 15.48C19.3561 15.3744 19.6292 15.3201 19.905 15.3201C20.1808 15.3201 20.4539 15.3744 20.7087 15.48C20.9635 15.5855 21.195 15.7402 21.39 15.9352C21.585 16.1302 21.7397 16.3617 21.8452 16.6165C21.9508 16.8713 22.0051 17.1444 22.0051 17.4202C22.0051 17.696 21.9508 17.9691 21.8452 18.2239C21.7397 18.4787 21.585 18.7102 21.39 18.9052L18 22.3252H15V19.3252L18.42 15.9352Z" stroke="#354052" stroke-width="2" stroke-linecap="round" stroke-linejoin="round"/>
</svg>
