<svg width="24" height="25" viewBox="0 0 24 25" fill="none" xmlns="http://www.w3.org/2000/svg">
<path d="M7 7.3253H6C5.46957 7.3253 4.96086 7.53602 4.58579 7.91109C4.21071 8.28616 4 8.79487 4 9.3253V18.3253C4 18.8557 4.21071 19.3644 4.58579 19.7395C4.96086 20.1146 5.46957 20.3253 6 20.3253H15C15.5304 20.3253 16.0391 20.1146 16.4142 19.7395C16.7893 19.3644 17 18.8557 17 18.3253V17.3253M16 5.3253L19 8.3253M20.385 6.9103C20.7788 6.51646 21.0001 5.98229 21.0001 5.4253C21.0001 4.86832 20.7788 4.33415 20.385 3.9403C19.9912 3.54646 19.457 3.3252 18.9 3.3252C18.343 3.3252 17.8088 3.54646 17.415 3.9403L9 12.3253V15.3253H12L20.385 6.9103Z" stroke="#354052" stroke-width="2" stroke-linecap="round" stroke-linejoin="round"/>
</svg>
