<svg width="24" height="25" viewBox="0 0 24 25" fill="none" xmlns="http://www.w3.org/2000/svg">
<path d="M4 7.3252H20M10 11.3252V17.3252M14 11.3252V17.3252M5 7.3252L6 19.3252C6 19.8556 6.21071 20.3643 6.58579 20.7394C6.96086 21.1145 7.46957 21.3252 8 21.3252H16C16.5304 21.3252 17.0391 21.1145 17.4142 20.7394C17.7893 20.3643 18 19.8556 18 19.3252L19 7.3252M9 7.3252V4.3252C9 4.05998 9.10536 3.80562 9.29289 3.61809C9.48043 3.43055 9.73478 3.3252 10 3.3252H14C14.2652 3.3252 14.5196 3.43055 14.7071 3.61809C14.8946 3.80562 15 4.05998 15 4.3252V7.3252" stroke="#354052" stroke-width="2" stroke-linecap="round" stroke-linejoin="round"/>
</svg>
